<svg xmlns="http://www.w3.org/2000/svg" width="232" viewBox="0 0 464.54 86.00" role="img" aria-label="Join the TestFlight beta">
  <title>Join the TestFlight beta</title>
  <defs>
    <filter id="glow" x="-20%" y="-20%" width="140%" height="160%">
      <feDropShadow dx="0" dy="6" stdDeviation="7" flood-color="#00a4dc" flood-opacity="0.6"/>
    </filter>
    <clipPath id="inner"><polygon points="23.00,13.00 441.54,13.00 441.54,16.00 444.54,16.00 444.54,19.00 447.54,19.00 447.54,51.00 444.54,51.00 444.54,54.00 441.54,54.00 441.54,57.00 23.00,57.00 23.00,54.00 20.00,54.00 20.00,51.00 17.00,51.00 17.00,19.00 20.00,19.00 20.00,16.00 23.00,16.00"/></clipPath>
  </defs>
  <g filter="url(#glow)">
    <polygon points="23.00,10.00 441.54,10.00 441.54,13.00 444.54,13.00 444.54,16.00 447.54,16.00 447.54,19.00 450.54,19.00 450.54,51.00 447.54,51.00 447.54,54.00 444.54,54.00 444.54,57.00 441.54,57.00 441.54,60.00 23.00,60.00 23.00,57.00 20.00,57.00 20.00,54.00 17.00,54.00 17.00,51.00 14.00,51.00 14.00,19.00 17.00,19.00 17.00,16.00 20.00,16.00 20.00,13.00 23.00,13.00" fill="#000000"/>
    <polygon points="23.00,13.00 441.54,13.00 441.54,16.00 444.54,16.00 444.54,19.00 447.54,19.00 447.54,51.00 444.54,51.00 444.54,54.00 441.54,54.00 441.54,57.00 23.00,57.00 23.00,54.00 20.00,54.00 20.00,51.00 17.00,51.00 17.00,19.00 20.00,19.00 20.00,16.00 23.00,16.00" fill="#00a4dc"/>
    <g clip-path="url(#inner)">
      <rect x="17.00" y="13.00" width="430.54" height="3" fill="#ffffff" fill-opacity="0.078"/>
      <rect x="17.00" y="54.00" width="430.54" height="3" fill="#000000" fill-opacity="0.42"/>
    </g>
  </g>
  <g fill="#00121a">
    <path transform="translate(42.00 23.00) scale(0.8333)" d="M12.152 6.896c-.948 0-2.415-1.078-3.96-1.04c-2.04.027-3.91 1.183-4.961 3.014c-2.117 3.675-.546 9.103 1.519 12.09c1.013 1.454 2.208 3.09 3.792 3.039c1.52-.065 2.09-.987 3.935-.987c1.831 0 2.35.987 3.96.948c1.637-.026 2.676-1.48 3.676-2.948c1.156-1.688 1.636-3.325 1.662-3.415c-.039-.013-3.182-1.221-3.22-4.857c-.026-3.04 2.48-4.494 2.597-4.559c-1.429-2.09-3.623-2.324-4.39-2.376c-2-.156-3.675 1.09-4.61 1.09zM15.53 3.83c.843-1.012 1.4-2.427 1.245-3.83c-1.207.052-2.662.805-3.532 1.818c-.78.896-1.454 2.338-1.273 3.714c1.338.104 2.715-.688 3.559-1.701"/>
    <path transform="translate(72.00 45.00) scale(0.02857 -0.02857)" d="M151 -12V78H60V270H161V88H423V530H151V631H433V540H525V78H433V-12ZM737 -12V78H646V359H737V450H1019V359H1111V78H1019V-12ZM747 88H1009V350H747ZM1232 -12V450H1333V-12ZM1232 530V631H1333V530ZM1454 -12V450H1827V359H1919V-12H1817V350H1555V-12ZM2421 -12V78H2331V350H2240V450H2331V631H2431V450H2705V350H2431V88H2695V179H2796V78H2705V-12ZM2917 -12V631H3018V359H3098V450H3290V359H3382V-12H3280V350H3108V260H3018V-12ZM3594 -12V78H3503V359H3594V450H3876V359H3968V260H3866V350H3604V270H3786V169H3604V88H3866V180H3968V79H3876V-12ZM4470 -12V530H4390V440H4289V540H4380V631H4662V540H4754V440H4652V530H4572V-12ZM4966 -12V78H4875V359H4966V450H5248V359H5340V260H5238V350H4976V270H5158V169H4976V88H5238V180H5340V79H5248V-12ZM5461 -12V88H5824V169H5552V260H5461V359H5552V450H5926V350H5562V270H5834V179H5926V78H5834V-12ZM6228 -12V78H6138V350H6047V450H6138V631H6238V450H6512V350H6238V88H6502V179H6603V78H6512V-12ZM6724 -12V631H7097V540H7189V440H7087V530H6825V359H7007V260H6825V-12ZM7310 -12V631H7411V-12ZM7532 -12V450H7633V-12ZM7532 530V631H7633V530ZM7845 -193V-103H7754V-3H7855V-93H8118V78H7845V169H7754V359H7845V450H8128V359H8219V-103H8128V-193ZM7855 179H8118V350H7855ZM8340 -12V631H8441V359H8521V450H8713V359H8805V-12H8703V350H8531V260H8441V-12ZM9107 -12V78H9017V350H8926V450H9017V631H9117V450H9391V350H9117V88H9381V179H9482V78H9391V-12ZM9894 -12V78H9803V631H9904V450H10176V359H10268V78H10176V-12ZM9904 88H10166V350H9904ZM10480 -12V78H10389V359H10480V450H10762V359H10854V260H10752V350H10490V270H10672V169H10490V88H10752V180H10854V79H10762V-12ZM11156 -12V78H11066V350H10975V450H11066V631H11166V450H11440V350H11166V88H11430V179H11531V78H11440V-12ZM11743 -12V78H11652V359H11743V450H12025V359H12117V88H12208V-12H12107V78H12025V-12ZM11753 88H12015V350H11753Z"/>
  </g>
</svg>
